# xmcd
#
# Track frame offsets:
#	150
#	68100
#	106876
#	134415
#	190510
#	224359
#	240218
#
# Disc length: 3664 seconds
#
# Revision: 1
# Processed by: cddbd v1.5.2PL0 Copyright (c) Steve Scherf et al.
# Submitted via: audiograbber 1.83.01
#
DISCID=590e4e07
DTITLE=René Splinter - Singularities
DYEAR=2012
DGENRE=Electronic
TTITLE0=Singularities
TTITLE1=Lucid Dreaming
TTITLE2=The Time Traveler
TTITLE3=Timescapes
TTITLE4=Lemniscate
TTITLE5=Before Babel
TTITLE6=The Lighthouse
EXTD=
EXTT0=
EXTT1=
EXTT2=
EXTT3=
EXTT4=
EXTT5=
EXTT6=
PLAYORDER=
